<?xml version="1.0"?>
<svg version="1.1" xmlns="http://www.w3.org/2000/svg" width="290" height="42" style=""><path fill="#780a46" d="M22.8,18.4q-2.8,0-4.7,2.025q-1.875,2-1.875,4.875l0,10.7l1.575,0l0-7.85l10.05,0l0,7.85l1.575,0l0-10.7q0-2.875-1.875-4.875q-1.95-2.025-4.75-2.025z M27.85,26.6l-10.05,0l0-1.3q0-2.15,1.45-3.725q1.475-1.6,3.55-1.6t3.6,1.6q1.45,1.575,1.45,3.725l0,1.3z M37.571,20.325l9.425,0l0-1.9l-9.425,0q-1.85,0-3.1,1.45q-1.275,1.475-1.275,3.575q0,1.9,1.275,3.3q1.25,1.425,3.1,1.425l2.5,0l2.55,0q1.125,0,2,0.95q0.825,1,0.825,2.175q0,1.4-0.8125,2.275t-2.0125,0.875l-9.425,0l0,1.55l9.425,0q1.875,0,3.125-1.3t1.25-3.4q0-1.9-1.25-3.3q-1.275-1.4-3.125-1.4l-2.55,0l-2.5,0q-1.15,0-1.975-1q-0.85-0.925-0.85-2.15q0-1.4,0.8125-2.2625t2.0125-0.8625z M64.367,18.45l-1.575,0l0,8l-10.55,0l0-8l-1.575,0l0,17.55l1.575,0l0-7.975l10.55,0l0,7.975l1.575,0l0-17.55z M94.288,18.5l-1.575,0l0,10.625q0,2.1-1.6,3.7t-3.7,1.6t-3.7-1.6t-1.6-3.7l0-10.625l-1.575,0l0,10.625q0,2.1-1.6,3.7q-1.65,1.6-3.725,1.6q-2.1,0-3.7-1.6t-1.6-3.7l0-10.625l-1.575,0l0,10.625q0,2.775,2.05,4.825t4.825,2.05q1.9,0,3.575-1.05q1.65-1.025,2.375-2.675q0.9,1.6,2.65,2.675q1.7,1.05,3.6,1.05q2.8,0,4.85-2.05q2.025-2.025,2.025-4.825l0-10.625z M98.259,36.025l1.575,0l0-17.575l-1.575,0l0,17.575z M103.705,36l1.55,0l0-10.6q0-2.1,1.6-3.75q1.6-1.6,3.7-1.6t3.75,1.6q1.6,1.65,1.6,3.75l0,10.6l1.55,0l0-10.6q0-2.85-2.025-4.875t-4.875-2.025q-2.8,0-4.825,2.025t-2.025,4.875l0,10.6z M143.497,18.475l-1.575,0l0,10.675q0,2.3-1.6,3.85q-1.575,1.5-3.75,1.5q-2.375,0-3.825-1.5q-1.475-1.525-1.475-3.85l0-10.675l-1.6,0l0,10.675q0,2.85,1.95,4.85q1.975,2.05,4.95,2.05q2.775,0,4.875-2.05q2.05-2,2.05-4.85l0-10.675z M147.368,35.95l1.55,0l0-10.575q0-2.1,1.6-3.7t3.7-1.6q2.05,0,3.7,1.6q1.575,1.575,1.575,3.7l0,10.575l1.6,0l0-10.575q0-2.15,1.6-3.7q1.6-1.6,3.675-1.6q2.1,0,3.7,1.6t1.6,3.7l0,10.575l1.55,0l0-10.575q0-2.85-2-4.85t-4.85-2q-1.875,0-3.525,1.025q-1.675,1.05-2.4,2.675q-0.975-1.675-2.625-2.675q-1.725-1.025-3.6-1.025q-2.825,0-4.825,2q-2.025,2.025-2.025,4.85l0,10.575z M188.664,27.075q0.975-0.475,1.6-1.575q0.625-1.05,0.625-2.25q0-2.15-1.45-3.475q-1.45-1.3-3.65-1.3l-7.025,0l-0.3,0l-1.275,0l0,17.525l1.275,0l0.3,0l7.025,0q2.2,0,3.65-1.3q1.45-1.325,1.45-3.475q0-1.175-0.6125-2.2875t-1.6125-1.8625z M178.764,19.75l7.025,0q1.5,0,2.475,1.025q1.05,1.1,1.05,2.475q0,1.125-0.825,2.075q-0.775,0.85-2.05,1.125l-0.65,0l-7.025,0l0-6.7z M185.789,34.725l-7.025,0l0-6.7l7.025,0l0.65,0q1.275,0.275,2.05,1.125q0.825,0.95,0.825,2.075q0,1.35-1.05,2.45q-1,1.05-2.475,1.05z M201.21,18.4q-2.8,0-4.7,2.025q-1.875,2-1.875,4.875l0,10.7l1.575,0l0-7.85l10.05,0l0,7.85l1.575,0l0-10.7q0-2.875-1.875-4.875q-1.95-2.025-4.75-2.025z M206.26,26.6l-10.05,0l0-1.3q0-2.15,1.45-3.725q1.475-1.6,3.55-1.6t3.6,1.6q1.45,1.575,1.45,3.725l0,1.3z M219.256,27.225l1.875,0q1.9,0,3.15-1.25t1.25-3.15q0-1.675-1.25-3q-1.325-1.375-3.15-1.375l-7.825,0l-1.55,0l0,17.55l1.55,0l0-8.775l4.075,0l5.325,8.775l1.875,0z M213.306,25.675l0-5.65l7.825,0q1.15,0,2.025,0.825q0.825,0.825,0.825,1.975q0,1.2-0.825,2.025q-0.875,0.825-2.025,0.825l-7.825,0z M240.452,36l2.525,0l-11.175-8.925l11.175-8.6l-2.525,0l-9.6,7.65l0-7.65l-1.575,0l0,17.525l1.575,0l0-7.65z M253.048,18.4q-2.8,0-4.7,2.025q-1.875,2-1.875,4.875l0,10.7l1.575,0l0-7.85l10.05,0l0,7.85l1.575,0l0-10.7q0-2.875-1.875-4.875q-1.95-2.025-4.75-2.025z M258.098,26.6l-10.05,0l0-1.3q0-2.15,1.45-3.725q1.475-1.6,3.55-1.6t3.6,1.6q1.45,1.575,1.45,3.725l0,1.3z M271.094,27.225l1.875,0q1.9,0,3.15-1.25t1.25-3.15q0-1.675-1.25-3q-1.325-1.375-3.15-1.375l-7.825,0l-1.55,0l0,17.55l1.55,0l0-8.775l4.075,0l5.325,8.775l1.875,0z M265.144,25.675l0-5.65l7.825,0q1.15,0,2.025,0.825q0.825,0.825,0.825,1.975q0,1.2-0.825,2.025q-0.875,0.825-2.025,0.825l-7.825,0z"/><path fill="#" d=""/></svg>
